Release info:

General
Format                                   : Matroska
Format version                           : Version 4 / Version 2
File size                                : 748 MiB
Duration                                 : 1h 42mn
Overall bit rate                         : 1 024 Kbps
Movie name                               : Broken City 2013 CAMRip English

Video
ID                                       : 1
Format                                   : MPEG-4 Visual
Format profile                           : Advanced Simple@L5
Format settings, BVOP                    : Yes
Format settings, QPel                    : No
Format settings, GMC                     : No warppoints
Format settings, Matrix                  : Default (H.263)
Codec ID                                 : V_MS/VFW/FOURCC / XVID
Codec ID/Hint                            : XviD
Duration                                 : 1h 42mn
Bit rate                                 : 876 Kbps
Width                                    : 672 pixels
Height                                   : 320 pixels
Display aspect ratio                     : 2.100
Frame rate mode                          : Constant
Frame rate                               : 29.970 fps
Color space                              : YUV
Chroma subsampling                       : 4:2:0
Bit depth                                : 8 bits
Scan type                                : Progressive
Compression mode                         : Lossy
Bits/(Pixel*Frame)                       : 0.136
Stream size                              : 639 MiB (86%)
Title                                    : Broken City 2013 CAMRip English
Writing library                          : XviD 64
Language                                 : English
Default                                  : Yes
Forced                                   : No

Audio
ID                                       : 2
Format                                   : MPEG Audio
Format version                           : Version 1
Format profile                           : Layer 3
Mode                                     : Joint stereo
Mode extension                           : MS Stereo
Codec ID                                 : A_MPEG/L3
Codec ID/Hint                            : MP3
Duration                                 : 1h 42mn
Bit rate mode                            : Constant
Bit rate                                 : 128 Kbps
Channel(s)                               : 2 channels
Sampling rate                            : 48.0 KHz
Compression mode                         : Lossy
Stream size                              : 93.4 MiB (12%)
Title                                    : Broken City 2013 CAMRip English
Writing library                          : LAME3.99r
Encoding settings                        : -m j -V 4 -q 2 -lowpass 17 -b 128
Language                                 : English
Default                                  : Yes
Forced                                   : No



Source:
credit to original movie ripper TiCKLE.TiME (Thanks)

IMDB Info:

In a city rife with injustice, ex-cop Billy Taggart seeks redemption and revenge after being double-crossed and then framed by its most powerful figure: Mayor Nicholas Hostetler.

Director: Allen Hughes
Writer: Brian Tucker
Stars: Mark Wahlberg, Russell Crowe and Catherine Zeta-Jones

Genres: Crime | Drama | Thriller 
 
http://www.imdb.com/title/tt1235522/

Screen Shot:
 
http://www.shotpix.com/images/33486559430092691736.png 
http://www.shotpix.com/images/25470334644104786911.png 
http://www.shotpix.com/images/52403848680088382781.png 
http://www.shotpix.com/images/40051326830565945921.png